<svg xmlns="http://www.w3.org/2000/svg" viewBox="0 0 32 32" width="32" height="32">
  <rect width="32" height="32" rx="7" fill="#2563eb"></rect>
  <g stroke="#ffffff" stroke-width="0.9" stroke-linejoin="round">
    <path d="M4 20 L8 18 L12 20 L8 22 Z" fill="#ffffff" fill-opacity="0.95"></path>
    <path d="M4 20 L4 24 L8 26 L8 22 Z" fill="#ffffff" fill-opacity="0.55"></path>
    <path d="M12 20 L12 24 L8 26 L8 22 Z" fill="#ffffff" fill-opacity="0.75"></path>
    <path d="M11 14 L16 12 L21 14 L16 16 Z" fill="#ffffff" fill-opacity="0.95"></path>
    <path d="M11 14 L11 20 L16 22 L16 16 Z" fill="#ffffff" fill-opacity="0.55"></path>
    <path d="M21 14 L21 20 L16 22 L16 16 Z" fill="#ffffff" fill-opacity="0.75"></path>
    <path d="M18 8 L22 6 L26 8 L22 10 Z" fill="#ffffff" fill-opacity="0.95"></path>
    <path d="M18 8 L18 12 L22 14 L22 10 Z" fill="#ffffff" fill-opacity="0.55"></path>
    <path d="M26 8 L26 12 L22 14 L22 10 Z" fill="#ffffff" fill-opacity="0.75"></path>
  </g>
  <circle cx="25" cy="6" r="1.2" fill="#22d3ee"></circle>
</svg>
