<svg xmlns="http://www.w3.org/2000/svg" viewBox="0 0 64 64" width="64" height="64" aria-label="Inventory Sales Hub">
  <defs>
    <linearGradient id="ish-face" x1="0" y1="0" x2="0" y2="1">
      <stop offset="0" stop-color="#2563eb"></stop>
      <stop offset="1" stop-color="#1d4ed8"></stop>
    </linearGradient>
  </defs>
  <rect x="2" y="2" width="60" height="60" rx="14" fill="url(#ish-face)"></rect>
  <rect x="2.75" y="2.75" width="58.5" height="58.5" rx="13.25" fill="none" stroke="#ffffff" stroke-opacity="0.14"></rect>
  <g stroke="#ffffff" stroke-width="1.35" stroke-linejoin="round" fill="none" opacity="0.98">
    <path d="M12 40 L20 36 L28 40 L20 44 Z" fill="#ffffff" fill-opacity="0.95"></path>
    <path d="M12 40 L12 48 L20 52 L20 44 Z" fill="#ffffff" fill-opacity="0.55"></path>
    <path d="M28 40 L28 48 L20 52 L20 44 Z" fill="#ffffff" fill-opacity="0.75"></path>
    <path d="M24 30 L34 25 L44 30 L34 35 Z" fill="#ffffff" fill-opacity="0.95"></path>
    <path d="M24 30 L24 40 L34 45 L34 35 Z" fill="#ffffff" fill-opacity="0.55"></path>
    <path d="M44 30 L44 40 L34 45 L34 35 Z" fill="#ffffff" fill-opacity="0.75"></path>
    <path d="M38 18 L46 14 L54 18 L46 22 Z" fill="#ffffff" fill-opacity="0.95"></path>
    <path d="M38 18 L38 26 L46 30 L46 22 Z" fill="#ffffff" fill-opacity="0.55"></path>
    <path d="M54 18 L54 26 L46 30 L46 22 Z" fill="#ffffff" fill-opacity="0.75"></path>
  </g>
  <circle cx="50" cy="14" r="2.2" fill="#22d3ee"></circle>
</svg>
